# Object Export From Tinkercad Server 2015

mtllib obj.mtl

o obj_0
v 20 		-6.5 		100
v 95 		-84 		0
v 95 		71 		0
v -55 		71 		0
v -55 		-84 		0
v 20 		-6.5 		0
# 6 vertices

g group_0_14789940

usemtl color_14789940
s 0

f 2 	3 	1
f 3 	4 	1
f 4 	5 	1
f 5 	2 	1
f 3 	2 	6
f 4 	3 	6
f 5 	4 	6
f 2 	5 	6
# 8 faces

 #end of obj_0

o obj_1
v -54 		4 		31
v -54 		24 		31
v -54 		4 		0
v -54 		24 		0
v -58 		24 		31
v -58 		4 		31
v -58 		24 		0
v -58 		4 		0
# 8 vertices

g group_1_14789940

usemtl color_14789940
s 0

f 7 	9 	8
f 9 	10 	8
f 11 	13 	12
f 13 	14 	12
f 11 	12 	8
f 12 	7 	8
f 14 	13 	9
f 13 	10 	9
f 12 	14 	7
f 14 	9 	7
f 8 	10 	11
f 10 	13 	11
# 12 faces

 #end of obj_1

o obj_2
v -54 		-44 		31
v -54 		-24 		31
v -54 		-44 		0
v -54 		-24 		0
v -58 		-24 		31
v -58 		-44 		31
v -58 		-24 		0
v -58 		-44 		0
# 8 vertices

g group_2_14789940

usemtl color_14789940
s 0

f 15 	17 	16
f 17 	18 	16
f 19 	21 	20
f 21 	22 	20
f 19 	20 	16
f 20 	15 	16
f 22 	21 	17
f 21 	18 	17
f 20 	22 	15
f 22 	17 	15
f 16 	18 	19
f 18 	21 	19
# 12 faces

 #end of obj_2

o obj_3
v -52 		-26 		12
v -52 		-26 		32
v -52 		4 		12
v -52 		4 		32
v -56 		-26 		32
v -56 		-26 		12
v -56 		4 		32
v -56 		4 		12
# 8 vertices

g group_3_14789940

usemtl color_14789940
s 0

f 23 	25 	24
f 25 	26 	24
f 27 	29 	28
f 29 	30 	28
f 27 	28 	24
f 28 	23 	24
f 30 	29 	25
f 29 	26 	25
f 28 	30 	23
f 30 	25 	23
f 24 	26 	27
f 26 	29 	27
# 12 faces

 #end of obj_3

o obj_4
v -55 		-26 		0
v -55 		-26 		20
v -55 		5 		0
v -55 		5 		20
v -59 		-26 		20
v -59 		-26 		0
v -59 		5 		20
v -59 		5 		0
# 8 vertices

g group_4_2829873

usemtl color_2829873
s 0

f 31 	33 	32
f 33 	34 	32
f 35 	37 	36
f 37 	38 	36
f 35 	36 	32
f 36 	31 	32
f 38 	37 	33
f 37 	34 	33
f 36 	38 	31
f 38 	33 	31
f 32 	34 	35
f 34 	37 	35
# 12 faces

 #end of obj_4

o obj_5
v -54 		-1.188 		26.7777
v -54 		-3.831 		22.1167
v -54 		-2.7984 		22.1167
v -54 		-2.7117 		30.388
v -54 		-3.7371 		30.388
v -54 		0.0901 		26.2524
v -54 		-0.502 		27.1946
v -54 		1 		30.388
v -54 		0.0901 		30.388
v -54 		0.0901 		22.1167
v -54 		1 		22.1167
v -54 		-0.5887 		26.0606
v -54 		0.0901 		25.4186
v -57 		-2.7984 		22.1167
v -57 		-3.831 		22.1167
v -57 		-1.188 		26.7777
v -57 		-3.7371 		30.388
v -57 		-2.7117 		30.388
v -57 		-0.502 		27.1946
v -57 		0.0901 		26.2524
v -57 		0.0901 		30.388
v -57 		1 		30.388
v -57 		1 		22.1167
v -57 		0.0901 		22.1167
v -57 		-0.5887 		26.0606
v -57 		0.0901 		25.4186
v -54 		-8.9365 		22.1167
v -54 		-8.041 		22.1167
v -54 		-8.041 		26.1106
v -54 		-8.8859 		26.887
v -54 		-8.9365 		26.169
v -54 		-8.4815 		27.8949
v -54 		-8.7343 		27.4623
v -54 		-7.6792 		28.3767
v -54 		-8.1293 		28.196
v -54 		-6.9739 		28.4304
v -54 		-7.1311 		28.4369
v -54 		-6.669 		28.3786
v -54 		-6.8198 		28.411
v -54 		-6.3801 		28.2748
v -54 		-6.5221 		28.3332
v -54 		-6.1121 		28.1145
v -54 		-6.2429 		28.2035
v -54 		-5.8746 		27.9033
v -54 		-5.9894 		28.0145
v -54 		-5.666 		27.6402
v -54 		-5.7647 		27.7791
v -54 		-5.5713 		30.9133
v -54 		-5.5713 		28.2952
v -54 		-5.5352 		27.4864
v -54 		-4.6831 		22.1167
v -54 		-4.6831 		30.9133
v -54 		-5.5713 		25.3269
v -54 		-5.5713 		22.1167
v -54 		-8.0121 		26.559
v -54 		-5.5786 		27.4864
v -54 		-5.5794 		25.6752
v -54 		-5.6034 		25.9976
v -54 		-7.9255 		26.9259
v -54 		-7.7811 		27.2112
v -54 		-5.6436 		26.2941
v -54 		-7.5797 		27.4151
v -54 		-5.7013 		26.5572
v -54 		-7.3125 		27.5373
v -54 		-5.7784 		26.7906
v -54 		-6.9795 		27.5781
v -54 		-5.8746 		26.9944
v -54 		-6.7284 		27.5614
v -54 		-5.9966 		27.1723
v -54 		-6.141 		27.3168
v -54 		-6.5045 		27.5114
v -54 		-6.3079 		27.428
v -57 		-8.041 		26.1106
v -57 		-8.041 		22.1167
v -57 		-8.9365 		22.1167
v -57 		-8.9365 		26.169
v -57 		-8.8859 		26.887
v -57 		-8.7343 		27.4623
v -57 		-8.4815 		27.8949
v -57 		-8.1293 		28.196
v -57 		-7.6792 		28.3767
v -57 		-7.1311 		28.4369
v -57 		-6.9739 		28.4304
v -57 		-6.8198 		28.411
v -57 		-6.669 		28.3786
v -57 		-6.5221 		28.3332
v -57 		-6.3801 		28.2748
v -57 		-6.2429 		28.2035
v -57 		-6.1121 		28.1145
v -57 		-5.9894 		28.0145
v -57 		-5.8746 		27.9033
v -57 		-5.7647 		27.7791
v -57 		-5.666 		27.6402
v -57 		-5.5352 		27.4864
v -57 		-5.5713 		28.2952
v -57 		-5.5713 		30.9133
v -57 		-4.6831 		30.9133
v -57 		-4.6831 		22.1167
v -57 		-5.5713 		22.1167
v -57 		-5.5713 		25.3269
v -57 		-8.0121 		26.559
v -57 		-5.5786 		27.4864
v -57 		-5.5794 		25.6752
v -57 		-5.6034 		25.9976
v -57 		-7.9255 		26.9259
v -57 		-7.7811 		27.2112
v -57 		-5.6436 		26.2941
v -57 		-7.5797 		27.4151
v -57 		-5.7013 		26.5572
v -57 		-7.3125 		27.5373
v -57 		-5.7784 		26.7906
v -57 		-6.9795 		27.5781
v -57 		-5.8746 		26.9944
v -57 		-6.7284 		27.5614
v -57 		-5.9966 		27.1723
v -57 		-6.141 		27.3168
v -57 		-6.5045 		27.5114
v -57 		-6.3079 		27.428
v -54 		-14.7929 		22.1167
v -54 		-14.0708 		22.1167
v -54 		-13.9408 		22.9422
v -54 		-13.8975 		28.3285
v -54 		-14.7929 		28.3285
v -54 		-10.5396 		28.3285
v -54 		-11.4278 		28.3285
v -54 		-11.4278 		24.318
v -54 		-10.5516 		23.8872
v -54 		-10.5396 		24.2679
v -54 		-10.6479 		23.2424
v -54 		-10.5877 		23.5453
v -54 		-10.8533 		22.7347
v -54 		-10.7378 		22.9709
v -54 		-11.1566 		22.3659
v -54 		-10.9945 		22.5336
v -54 		-11.5578 		22.1251
v -54 		-11.3443 		22.2298
v -54 		-12.0552 		22.0139
v -54 		-11.7953 		22.0556
v -54 		-12.4949 		22.0065
v -54 		-12.3377 		22
v -54 		-12.7998 		22.0584
v -54 		-12.649 		22.0259
v -54 		-13.0887 		22.1584
v -54 		-12.9467 		22.1028
v -54 		-13.3567 		22.3094
v -54 		-13.2259 		22.2251
v -54 		-13.5942 		22.517
v -54 		-13.4794 		22.4067
v -54 		-13.8028 		22.7875
v -54 		-13.7041 		22.6457
v -54 		-11.4567 		23.8696
v -54 		-13.8975 		25.0934
v -54 		-13.8902 		22.9422
v -54 		-11.5433 		23.5027
v -54 		-13.8894 		24.746
v -54 		-11.6878 		23.2173
v -54 		-13.8654 		24.4264
v -54 		-11.8924 		23.0135
v -54 		-13.8252 		24.1345
v -54 		-12.1595 		22.8912
v -54 		-13.7675 		23.8714
v -54 		-12.4893 		22.8505
v -54 		-13.6904 		23.6379
v -54 		-12.7405 		22.8671
v -54 		-13.5942 		23.4341
v -54 		-12.9643 		22.9172
v -54 		-13.4722 		23.2563
v -54 		-13.1609 		23.0006
v -54 		-13.3278 		23.1117
v -57 		-13.9408 		22.9422
v -57 		-14.0708 		22.1167
v -57 		-14.7929 		22.1167
v -57 		-14.7929 		28.3285
v -57 		-13.8975 		28.3285
v -57 		-11.4278 		24.318
v -57 		-11.4278 		28.3285
v -57 		-10.5396 		28.3285
v -57 		-10.5396 		24.2679
v -57 		-10.5516 		23.8872
v -57 		-10.5877 		23.5453
v -57 		-10.6479 		23.2424
v -57 		-10.7378 		22.9709
v -57 		-10.8533 		22.7347
v -57 		-10.9945 		22.5336
v -57 		-11.1566 		22.3659
v -57 		-11.3443 		22.2298
v -57 		-11.5578 		22.1251
v -57 		-11.7953 		22.0556
v -57 		-12.0552 		22.0139
v -57 		-12.3377 		22
v -57 		-12.4949 		22.0065
v -57 		-12.649 		22.0259
v -57 		-12.7998 		22.0584
v -57 		-12.9467 		22.1028
v -57 		-13.0887 		22.1584
v -57 		-13.2259 		22.2251
v -57 		-13.3567 		22.3094
v -57 		-13.4794 		22.4067
v -57 		-13.5942 		22.517
v -57 		-13.7041 		22.6457
v -57 		-13.8028 		22.7875
v -57 		-11.4567 		23.8696
v -57 		-13.8975 		25.0934
v -57 		-13.8902 		22.9422
v -57 		-11.5433 		23.5027
v -57 		-13.8894 		24.746
v -57 		-11.6878 		23.2173
v -57 		-13.8654 		24.4264
v -57 		-11.8924 		23.0135
v -57 		-13.8252 		24.1345
v -57 		-12.1595 		22.8912
v -57 		-13.7675 		23.8714
v -57 		-12.4893 		22.8505
v -57 		-13.6904 		23.6379
v -57 		-12.7405 		22.8671
v -57 		-13.5942 		23.4341
v -57 		-12.9643 		22.9172
v -57 		-13.4722 		23.2563
v -57 		-13.1609 		23.0006
v -57 		-13.3278 		23.1117
v -54 		-18.8296 		28.3285
v -54 		-18.8296 		27.5864
v -54 		-17.6236 		27.5864
v -54 		-19.3206 		30.7632
v -54 		-19.0895 		29.9628
v -54 		-18.9852 		30.0045
v -54 		-19.0414 		30.867
v -54 		-19.1858 		30.8169
v -54 		-18.7189 		30.9504
v -54 		-18.8873 		30.9133
v -54 		-18.353 		30.98
v -54 		-18.5407 		30.9726
v -54 		-17.878 		30.9355
v -54 		-18.1067 		30.9689
v -54 		-17.476 		30.7975
v -54 		-17.667 		30.8799
v -54 		-17.1615 		30.5381
v -54 		-17.3075 		30.6835
v -54 		-16.9272 		30.1527
v -54 		-17.0331 		30.3639
v -54 		-16.7836 		29.6154
v -54 		-16.8437 		29.9044
v -54 		-16.7354 		28.9038
v -54 		-16.7474 		29.2818
v -54 		-15.7822 		27.5864
v -54 		-15.7822 		27.9867
v -54 		-16.7354 		28.3619
v -54 		-17.6236 		22.1167
v -54 		-16.7354 		22.1167
v -54 		-16.7354 		27.5864
v -54 		-17.6236 		28.3285
v -54 		-18.8745 		30.0406
v -54 		-18.7574 		30.0712
v -54 		-18.6354 		30.099
v -54 		-18.5102 		30.1156
v -54 		-17.6236 		28.9122
v -54 		-18.3819 		30.1212
v -54 		-17.6284 		29.1419
v -54 		-18.2575 		30.1156
v -54 		-17.6429 		29.3421
v -54 		-18.1444 		30.099
v -54 		-17.667 		29.5125
v -54 		-18.0425 		30.0712
v -54 		-17.7055 		29.657
v -54 		-17.7536 		29.7793
v -54 		-17.9558 		30.0239
v -54 		-17.8114 		29.8794
v -54 		-17.8788 		29.96
v -57 		-17.6236 		27.5864
v -57 		-18.8296 		27.5864
v -57 		-18.8296 		28.3285
v -57 		-18.9852 		30.0045
v -57 		-19.0895 		29.9628
v -57 		-19.3206 		30.7632
v -57 		-19.1858 		30.8169
v -57 		-19.0414 		30.867
v -57 		-18.8873 		30.9133
v -57 		-18.7189 		30.9504
v -57 		-18.5407 		30.9726
v -57 		-18.353 		30.98
v -57 		-18.1067 		30.9689
v -57 		-17.878 		30.9355
v -57 		-17.667 		30.8799
v -57 		-17.476 		30.7975
v -57 		-17.3075 		30.6835
v -57 		-17.1615 		30.5381
v -57 		-17.0331 		30.3639
v -57 		-16.9272 		30.1527
v -57 		-16.8437 		29.9044
v -57 		-16.7836 		29.6154
v -57 		-16.7474 		29.2818
v -57 		-16.7354 		28.9038
v -57 		-16.7354 		28.3619
v -57 		-15.7822 		27.9867
v -57 		-15.7822 		27.5864
v -57 		-16.7354 		27.5864
v -57 		-16.7354 		22.1167
v -57 		-17.6236 		22.1167
v -57 		-17.6236 		28.3285
v -57 		-18.8745 		30.0406
v -57 		-18.7574 		30.0712
v -57 		-18.6354 		30.099
v -57 		-18.5102 		30.1156
v -57 		-17.6236 		28.9122
v -57 		-18.3819 		30.1212
v -57 		-17.6284 		29.1419
v -57 		-18.2575 		30.1156
v -57 		-17.6429 		29.3421
v -57 		-18.1444 		30.099
v -57 		-17.667 		29.5125
v -57 		-18.0425 		30.0712
v -57 		-17.7055 		29.657
v -57 		-17.7536 		29.7793
v -57 		-17.9558 		30.0239
v -57 		-17.8114 		29.8794
v -57 		-17.8788 		29.96
v -54 		-24 		22.1167
v -54 		-23.2779 		22.1167
v -54 		-23.1479 		22.9422
v -54 		-23.1046 		28.3285
v -54 		-24 		28.3285
v -54 		-19.7467 		28.3285
v -54 		-20.6349 		28.3285
v -54 		-20.6349 		24.318
v -54 		-19.7587 		23.8872
v -54 		-19.7467 		24.2679
v -54 		-19.855 		23.2424
v -54 		-19.7948 		23.5453
v -54 		-20.0604 		22.7347
v -54 		-19.9449 		22.9709
v -54 		-20.3637 		22.3659
v -54 		-20.2016 		22.5336
v -54 		-20.7649 		22.1251
v -54 		-20.5514 		22.2298
v -54 		-21.2623 		22.0139
v -54 		-21.0024 		22.0556
v -54 		-21.702 		22.0065
v -54 		-21.5448 		22
v -54 		-22.0069 		22.0584
v -54 		-21.8561 		22.0259
v -54 		-22.2958 		22.1584
v -54 		-22.1538 		22.1028
v -54 		-22.5638 		22.3094
v -54 		-22.433 		22.2251
v -54 		-22.8013 		22.517
v -54 		-22.6865 		22.4067
v -54 		-23.0099 		22.7875
v -54 		-22.9112 		22.6457
v -54 		-20.6638 		23.8696
v -54 		-23.1046 		25.0934
v -54 		-23.0973 		22.9422
v -54 		-20.7504 		23.5027
v -54 		-23.0965 		24.746
v -54 		-20.8949 		23.2173
v -54 		-23.0725 		24.4264
v -54 		-21.0995 		23.0135
v -54 		-23.0324 		24.1345
v -54 		-21.3666 		22.8912
v -54 		-22.9746 		23.8714
v -54 		-21.6964 		22.8505
v -54 		-22.8976 		23.6379
v -54 		-21.9476 		22.8671
v -54 		-22.8013 		23.4341
v -54 		-22.1714 		22.9172
v -54 		-22.6793 		23.2563
v -54 		-22.368 		23.0006
v -54 		-22.5349 		23.1117
v -57 		-23.1479 		22.9422
v -57 		-23.2779 		22.1167
v -57 		-24 		22.1167
v -57 		-24 		28.3285
v -57 		-23.1046 		28.3285
v -57 		-20.6349 		24.318
v -57 		-20.6349 		28.3285
v -57 		-19.7467 		28.3285
v -57 		-19.7467 		24.2679
v -57 		-19.7587 		23.8872
v -57 		-19.7948 		23.5453
v -57 		-19.855 		23.2424
v -57 		-19.9449 		22.9709
v -57 		-20.0604 		22.7347
v -57 		-20.2016 		22.5336
v -57 		-20.3637 		22.3659
v -57 		-20.5514 		22.2298
v -57 		-20.7649 		22.1251
v -57 		-21.0024 		22.0556
v -57 		-21.2623 		22.0139
v -57 		-21.5448 		22
v -57 		-21.702 		22.0065
v -57 		-21.8561 		22.0259
v -57 		-22.0069 		22.0584
v -57 		-22.1538 		22.1028
v -57 		-22.2958 		22.1584
v -57 		-22.433 		22.2251
v -57 		-22.5638 		22.3094
v -57 		-22.6865 		22.4067
v -57 		-22.8013 		22.517
v -57 		-22.9112 		22.6457
v -57 		-23.0099 		22.7875
v -57 		-20.6638 		23.8696
v -57 		-23.1046 		25.0934
v -57 		-23.0973 		22.9422
v -57 		-20.7504 		23.5027
v -57 		-23.0965 		24.746
v -57 		-20.8949 		23.2173
v -57 		-23.0725 		24.4264
v -57 		-21.0995 		23.0135
v -57 		-23.0324 		24.1345
v -57 		-21.3666 		22.8912
v -57 		-22.9746 		23.8714
v -57 		-21.6964 		22.8505
v -57 		-22.8976 		23.6379
v -57 		-21.9476 		22.8671
v -57 		-22.8013 		23.4341
v -57 		-22.1714 		22.9172
v -57 		-22.6793 		23.2563
v -57 		-22.368 		23.0006
v -57 		-22.5349 		23.1117
# 418 vertices

g group_5_16768282

usemtl color_16768282
s 0

f 39 	40 	41
f 42 	43 	39
f 44 	45 	42
f 46 	47 	44
f 48 	49 	46
f 39 	41 	50
f 44 	42 	39
f 51 	48 	46
f 39 	50 	51
f 51 	46 	44
f 44 	39 	51
f 52 	53 	54
f 54 	55 	56
f 56 	57 	58
f 58 	59 	60
f 60 	61 	62
f 63 	52 	54
f 54 	56 	58
f 60 	62 	64
f 64 	63 	54
f 58 	60 	64
f 64 	54 	58
f 39 	43 	54
f 43 	55 	54
f 43 	42 	55
f 42 	56 	55
f 42 	45 	56
f 45 	57 	56
f 45 	44 	57
f 44 	58 	57
f 44 	47 	58
f 47 	59 	58
f 47 	46 	59
f 46 	60 	59
f 46 	49 	60
f 49 	61 	60
f 49 	48 	61
f 48 	62 	61
f 48 	51 	62
f 51 	64 	62
f 51 	50 	64
f 50 	63 	64
f 50 	41 	63
f 41 	52 	63
f 41 	40 	52
f 40 	53 	52
f 40 	39 	53
f 39 	54 	53
f 65 	66 	67
f 68 	69 	65
f 70 	71 	68
f 72 	73 	70
f 74 	75 	72
f 76 	77 	74
f 78 	79 	76
f 80 	81 	78
f 82 	83 	80
f 84 	85 	82
f 86 	87 	88
f 89 	90 	86
f 91 	92 	89
f 65 	67 	93
f 70 	68 	65
f 74 	72 	70
f 78 	76 	74
f 82 	80 	78
f 94 	84 	82
f 89 	86 	88
f 95 	91 	89
f 70 	65 	93
f 78 	74 	70
f 94 	82 	78
f 89 	88 	94
f 96 	95 	89
f 70 	93 	97
f 94 	78 	70
f 96 	89 	94
f 70 	97 	98
f 99 	96 	94
f 70 	98 	100
f 101 	99 	94
f 70 	100 	102
f 103 	101 	94
f 70 	102 	104
f 105 	103 	94
f 70 	104 	106
f 107 	105 	94
f 94 	70 	106
f 108 	107 	94
f 94 	106 	109
f 110 	108 	94
f 94 	109 	110
f 111 	112 	113
f 113 	114 	115
f 115 	116 	117
f 117 	118 	119
f 119 	120 	121
f 121 	122 	123
f 123 	124 	125
f 125 	126 	127
f 127 	128 	129
f 129 	130 	131
f 132 	133 	134
f 134 	135 	136
f 136 	137 	138
f 139 	111 	113
f 113 	115 	117
f 117 	119 	121
f 121 	123 	125
f 125 	127 	129
f 129 	131 	140
f 132 	134 	136
f 136 	138 	141
f 139 	113 	117
f 117 	121 	125
f 125 	129 	140
f 140 	132 	136
f 136 	141 	142
f 143 	139 	117
f 117 	125 	140
f 140 	136 	142
f 144 	143 	117
f 140 	142 	145
f 146 	144 	117
f 140 	145 	147
f 148 	146 	117
f 140 	147 	149
f 150 	148 	117
f 140 	149 	151
f 152 	150 	117
f 140 	151 	153
f 152 	117 	140
f 140 	153 	154
f 155 	152 	140
f 140 	154 	156
f 156 	155 	140
f 65 	69 	113
f 69 	114 	113
f 69 	68 	114
f 68 	115 	114
f 68 	71 	115
f 71 	116 	115
f 71 	70 	116
f 70 	117 	116
f 70 	73 	117
f 73 	118 	117
f 73 	72 	118
f 72 	119 	118
f 72 	75 	119
f 75 	120 	119
f 75 	74 	120
f 74 	121 	120
f 74 	77 	121
f 77 	122 	121
f 77 	76 	122
f 76 	123 	122
f 76 	79 	123
f 79 	124 	123
f 79 	78 	124
f 78 	125 	124
f 78 	81 	125
f 81 	126 	125
f 81 	80 	126
f 80 	127 	126
f 80 	83 	127
f 83 	128 	127
f 83 	82 	128
f 82 	129 	128
f 82 	85 	129
f 85 	130 	129
f 85 	84 	130
f 84 	131 	130
f 84 	94 	131
f 94 	140 	131
f 94 	88 	140
f 88 	132 	140
f 88 	87 	132
f 87 	133 	132
f 87 	86 	133
f 86 	134 	133
f 86 	90 	134
f 90 	135 	134
f 90 	89 	135
f 89 	136 	135
f 89 	92 	136
f 92 	137 	136
f 92 	91 	137
f 91 	138 	137
f 91 	95 	138
f 95 	141 	138
f 95 	96 	141
f 96 	142 	141
f 96 	99 	142
f 99 	145 	142
f 99 	101 	145
f 101 	147 	145
f 101 	103 	147
f 103 	149 	147
f 103 	105 	149
f 105 	151 	149
f 105 	107 	151
f 107 	153 	151
f 107 	108 	153
f 108 	154 	153
f 108 	110 	154
f 110 	156 	154
f 110 	109 	156
f 109 	155 	156
f 109 	106 	155
f 106 	152 	155
f 106 	104 	152
f 104 	150 	152
f 104 	102 	150
f 102 	148 	150
f 102 	100 	148
f 100 	146 	148
f 100 	98 	146
f 98 	144 	146
f 98 	97 	144
f 97 	143 	144
f 97 	93 	143
f 93 	139 	143
f 93 	67 	139
f 67 	111 	139
f 67 	66 	111
f 66 	112 	111
f 66 	65 	112
f 65 	113 	112
f 157 	158 	159
f 160 	161 	157
f 162 	163 	164
f 165 	166 	162
f 167 	168 	165
f 169 	170 	167
f 171 	172 	169
f 173 	174 	171
f 175 	176 	173
f 177 	178 	175
f 179 	180 	177
f 181 	182 	179
f 183 	184 	181
f 185 	186 	183
f 187 	188 	185
f 160 	157 	159
f 162 	164 	189
f 167 	165 	162
f 171 	169 	167
f 175 	173 	171
f 179 	177 	175
f 183 	181 	179
f 187 	185 	183
f 190 	160 	159
f 167 	162 	189
f 175 	171 	167
f 183 	179 	175
f 191 	187 	183
f 190 	159 	191
f 167 	189 	192
f 183 	175 	167
f 193 	190 	191
f 167 	192 	194
f 195 	193 	191
f 167 	194 	196
f 197 	195 	191
f 167 	196 	198
f 199 	197 	191
f 183 	167 	198
f 199 	191 	183
f 183 	198 	200
f 201 	199 	183
f 183 	200 	202
f 203 	201 	183
f 183 	202 	204
f 205 	203 	183
f 183 	204 	206
f 207 	205 	183
f 183 	206 	207
f 208 	209 	210
f 210 	211 	212
f 213 	214 	215
f 215 	216 	217
f 217 	218 	219
f 219 	220 	221
f 221 	222 	223
f 223 	224 	225
f 225 	226 	227
f 227 	228 	229
f 229 	230 	231
f 231 	232 	233
f 233 	234 	235
f 235 	236 	237
f 237 	238 	239
f 208 	210 	212
f 240 	213 	215
f 215 	217 	219
f 219 	221 	223
f 223 	225 	227
f 227 	229 	231
f 231 	233 	235
f 235 	237 	239
f 208 	212 	241
f 240 	215 	219
f 219 	223 	227
f 227 	231 	235
f 235 	239 	242
f 242 	208 	241
f 243 	240 	219
f 219 	227 	235
f 242 	241 	244
f 245 	243 	219
f 242 	244 	246
f 247 	245 	219
f 242 	246 	248
f 249 	247 	219
f 242 	248 	250
f 249 	219 	235
f 235 	242 	250
f 251 	249 	235
f 235 	250 	252
f 253 	251 	235
f 235 	252 	254
f 255 	253 	235
f 235 	254 	256
f 257 	255 	235
f 235 	256 	258
f 258 	257 	235
f 157 	161 	210
f 161 	211 	210
f 161 	160 	211
f 160 	212 	211
f 160 	190 	212
f 190 	241 	212
f 190 	193 	241
f 193 	244 	241
f 193 	195 	244
f 195 	246 	244
f 195 	197 	246
f 197 	248 	246
f 197 	199 	248
f 199 	250 	248
f 199 	201 	250
f 201 	252 	250
f 201 	203 	252
f 203 	254 	252
f 203 	205 	254
f 205 	256 	254
f 205 	207 	256
f 207 	258 	256
f 207 	206 	258
f 206 	257 	258
f 206 	204 	257
f 204 	255 	257
f 204 	202 	255
f 202 	253 	255
f 202 	200 	253
f 200 	251 	253
f 200 	198 	251
f 198 	249 	251
f 198 	196 	249
f 196 	247 	249
f 196 	194 	247
f 194 	245 	247
f 194 	192 	245
f 192 	243 	245
f 192 	189 	243
f 189 	240 	243
f 189 	164 	240
f 164 	213 	240
f 164 	163 	213
f 163 	214 	213
f 163 	162 	214
f 162 	215 	214
f 162 	166 	215
f 166 	216 	215
f 166 	165 	216
f 165 	217 	216
f 165 	168 	217
f 168 	218 	217
f 168 	167 	218
f 167 	219 	218
f 167 	170 	219
f 170 	220 	219
f 170 	169 	220
f 169 	221 	220
f 169 	172 	221
f 172 	222 	221
f 172 	171 	222
f 171 	223 	222
f 171 	174 	223
f 174 	224 	223
f 174 	173 	224
f 173 	225 	224
f 173 	176 	225
f 176 	226 	225
f 176 	175 	226
f 175 	227 	226
f 175 	178 	227
f 178 	228 	227
f 178 	177 	228
f 177 	229 	228
f 177 	180 	229
f 180 	230 	229
f 180 	179 	230
f 179 	231 	230
f 179 	182 	231
f 182 	232 	231
f 182 	181 	232
f 181 	233 	232
f 181 	184 	233
f 184 	234 	233
f 184 	183 	234
f 183 	235 	234
f 183 	186 	235
f 186 	236 	235
f 186 	185 	236
f 185 	237 	236
f 185 	188 	237
f 188 	238 	237
f 188 	187 	238
f 187 	239 	238
f 187 	191 	239
f 191 	242 	239
f 191 	159 	242
f 159 	208 	242
f 159 	158 	208
f 158 	209 	208
f 158 	157 	209
f 157 	210 	209
f 259 	260 	261
f 262 	263 	264
f 265 	266 	262
f 267 	268 	265
f 269 	270 	267
f 271 	272 	269
f 273 	274 	271
f 275 	276 	273
f 277 	278 	275
f 279 	280 	277
f 281 	282 	279
f 283 	284 	285
f 286 	287 	288
f 289 	259 	261
f 262 	264 	290
f 267 	265 	262
f 271 	269 	267
f 275 	273 	271
f 279 	277 	275
f 285 	281 	279
f 288 	283 	285
f 261 	286 	288
f 262 	290 	291
f 271 	267 	262
f 279 	275 	271
f 288 	285 	279
f 289 	261 	288
f 262 	291 	292
f 279 	271 	262
f 289 	288 	279
f 262 	292 	293
f 294 	289 	279
f 262 	293 	295
f 296 	294 	279
f 262 	295 	297
f 298 	296 	279
f 262 	297 	299
f 300 	298 	279
f 262 	299 	301
f 302 	300 	279
f 279 	262 	301
f 303 	302 	279
f 279 	301 	304
f 305 	303 	279
f 279 	304 	306
f 306 	305 	279
f 307 	308 	309
f 310 	311 	312
f 312 	313 	314
f 314 	315 	316
f 316 	317 	318
f 318 	319 	320
f 320 	321 	322
f 322 	323 	324
f 324 	325 	326
f 326 	327 	328
f 328 	329 	330
f 331 	332 	333
f 334 	335 	336
f 307 	309 	337
f 338 	310 	312
f 312 	314 	316
f 316 	318 	320
f 320 	322 	324
f 324 	326 	328
f 328 	330 	331
f 331 	333 	334
f 334 	336 	307
f 339 	338 	312
f 312 	316 	320
f 320 	324 	328
f 328 	331 	334
f 334 	307 	337
f 340 	339 	312
f 312 	320 	328
f 328 	334 	337
f 341 	340 	312
f 328 	337 	342
f 343 	341 	312
f 328 	342 	344
f 345 	343 	312
f 328 	344 	346
f 347 	345 	312
f 328 	346 	348
f 349 	347 	312
f 328 	348 	350
f 349 	312 	328
f 328 	350 	351
f 352 	349 	328
f 328 	351 	353
f 354 	352 	328
f 328 	353 	354
f 259 	289 	309
f 289 	337 	309
f 289 	294 	337
f 294 	342 	337
f 294 	296 	342
f 296 	344 	342
f 296 	298 	344
f 298 	346 	344
f 298 	300 	346
f 300 	348 	346
f 300 	302 	348
f 302 	350 	348
f 302 	303 	350
f 303 	351 	350
f 303 	305 	351
f 305 	353 	351
f 305 	306 	353
f 306 	354 	353
f 306 	304 	354
f 304 	352 	354
f 304 	301 	352
f 301 	349 	352
f 301 	299 	349
f 299 	347 	349
f 299 	297 	347
f 297 	345 	347
f 297 	295 	345
f 295 	343 	345
f 295 	293 	343
f 293 	341 	343
f 293 	292 	341
f 292 	340 	341
f 292 	291 	340
f 291 	339 	340
f 291 	290 	339
f 290 	338 	339
f 290 	264 	338
f 264 	310 	338
f 264 	263 	310
f 263 	311 	310
f 263 	262 	311
f 262 	312 	311
f 262 	266 	312
f 266 	313 	312
f 266 	265 	313
f 265 	314 	313
f 265 	268 	314
f 268 	315 	314
f 268 	267 	315
f 267 	316 	315
f 267 	270 	316
f 270 	317 	316
f 270 	269 	317
f 269 	318 	317
f 269 	272 	318
f 272 	319 	318
f 272 	271 	319
f 271 	320 	319
f 271 	274 	320
f 274 	321 	320
f 274 	273 	321
f 273 	322 	321
f 273 	276 	322
f 276 	323 	322
f 276 	275 	323
f 275 	324 	323
f 275 	278 	324
f 278 	325 	324
f 278 	277 	325
f 277 	326 	325
f 277 	280 	326
f 280 	327 	326
f 280 	279 	327
f 279 	328 	327
f 279 	282 	328
f 282 	329 	328
f 282 	281 	329
f 281 	330 	329
f 281 	285 	330
f 285 	331 	330
f 285 	284 	331
f 284 	332 	331
f 284 	283 	332
f 283 	333 	332
f 283 	288 	333
f 288 	334 	333
f 288 	287 	334
f 287 	335 	334
f 287 	286 	335
f 286 	336 	335
f 286 	261 	336
f 261 	307 	336
f 261 	260 	307
f 260 	308 	307
f 260 	259 	308
f 259 	309 	308
f 355 	356 	357
f 358 	359 	355
f 360 	361 	362
f 363 	364 	360
f 365 	366 	363
f 367 	368 	365
f 369 	370 	367
f 371 	372 	369
f 373 	374 	371
f 375 	376 	373
f 377 	378 	375
f 379 	380 	377
f 381 	382 	379
f 383 	384 	381
f 385 	386 	383
f 358 	355 	357
f 360 	362 	387
f 365 	363 	360
f 369 	367 	365
f 373 	371 	369
f 377 	375 	373
f 381 	379 	377
f 385 	383 	381
f 388 	358 	357
f 365 	360 	387
f 373 	369 	365
f 381 	377 	373
f 389 	385 	381
f 388 	357 	389
f 365 	387 	390
f 381 	373 	365
f 391 	388 	389
f 365 	390 	392
f 393 	391 	389
f 365 	392 	394
f 395 	393 	389
f 365 	394 	396
f 397 	395 	389
f 381 	365 	396
f 397 	389 	381
f 381 	396 	398
f 399 	397 	381
f 381 	398 	400
f 401 	399 	381
f 381 	400 	402
f 403 	401 	381
f 381 	402 	404
f 405 	403 	381
f 381 	404 	405
f 406 	407 	408
f 408 	409 	410
f 411 	412 	413
f 413 	414 	415
f 415 	416 	417
f 417 	418 	419
f 419 	420 	421
f 421 	422 	423
f 423 	424 	425
f 425 	426 	427
f 427 	428 	429
f 429 	430 	431
f 431 	432 	433
f 433 	434 	435
f 435 	436 	437
f 406 	408 	410
f 438 	411 	413
f 413 	415 	417
f 417 	419 	421
f 421 	423 	425
f 425 	427 	429
f 429 	431 	433
f 433 	435 	437
f 406 	410 	439
f 438 	413 	417
f 417 	421 	425
f 425 	429 	433
f 433 	437 	440
f 440 	406 	439
f 441 	438 	417
f 417 	425 	433
f 440 	439 	442
f 443 	441 	417
f 440 	442 	444
f 445 	443 	417
f 440 	444 	446
f 447 	445 	417
f 440 	446 	448
f 447 	417 	433
f 433 	440 	448
f 449 	447 	433
f 433 	448 	450
f 451 	449 	433
f 433 	450 	452
f 453 	451 	433
f 433 	452 	454
f 455 	453 	433
f 433 	454 	456
f 456 	455 	433
f 355 	359 	408
f 359 	409 	408
f 359 	358 	409
f 358 	410 	409
f 358 	388 	410
f 388 	439 	410
f 388 	391 	439
f 391 	442 	439
f 391 	393 	442
f 393 	444 	442
f 393 	395 	444
f 395 	446 	444
f 395 	397 	446
f 397 	448 	446
f 397 	399 	448
f 399 	450 	448
f 399 	401 	450
f 401 	452 	450
f 401 	403 	452
f 403 	454 	452
f 403 	405 	454
f 405 	456 	454
f 405 	404 	456
f 404 	455 	456
f 404 	402 	455
f 402 	453 	455
f 402 	400 	453
f 400 	451 	453
f 400 	398 	451
f 398 	449 	451
f 398 	396 	449
f 396 	447 	449
f 396 	394 	447
f 394 	445 	447
f 394 	392 	445
f 392 	443 	445
f 392 	390 	443
f 390 	441 	443
f 390 	387 	441
f 387 	438 	441
f 387 	362 	438
f 362 	411 	438
f 362 	361 	411
f 361 	412 	411
f 361 	360 	412
f 360 	413 	412
f 360 	364 	413
f 364 	414 	413
f 364 	363 	414
f 363 	415 	414
f 363 	366 	415
f 366 	416 	415
f 366 	365 	416
f 365 	417 	416
f 365 	368 	417
f 368 	418 	417
f 368 	367 	418
f 367 	419 	418
f 367 	370 	419
f 370 	420 	419
f 370 	369 	420
f 369 	421 	420
f 369 	372 	421
f 372 	422 	421
f 372 	371 	422
f 371 	423 	422
f 371 	374 	423
f 374 	424 	423
f 374 	373 	424
f 373 	425 	424
f 373 	376 	425
f 376 	426 	425
f 376 	375 	426
f 375 	427 	426
f 375 	378 	427
f 378 	428 	427
f 378 	377 	428
f 377 	429 	428
f 377 	380 	429
f 380 	430 	429
f 380 	379 	430
f 379 	431 	430
f 379 	382 	431
f 382 	432 	431
f 382 	381 	432
f 381 	433 	432
f 381 	384 	433
f 384 	434 	433
f 384 	383 	434
f 383 	435 	434
f 383 	386 	435
f 386 	436 	435
f 386 	385 	436
f 385 	437 	436
f 385 	389 	437
f 389 	440 	437
f 389 	357 	440
f 357 	406 	440
f 357 	356 	406
f 356 	407 	406
f 356 	355 	407
f 355 	408 	407
# 816 faces

 #end of obj_5

